<mxfile host="app.diagrams.net" modified="2024-01-29T06:03:46.644Z" agent="Mozilla/5.0 (X11; CrOS x86_64 14541.0.0) AppleWebKit/537.36 (KHTML, like Gecko) Chrome/120.0.0.0 Safari/537.36" etag="rlFXms1uxvzX0Wv-KVgW" version="23.0.2" type="github">
  <diagram name="Page-1" id="2oZSOrPISX_83qrItdrH">
    <mxGraphModel dx="968" dy="401" grid="1" gridSize="10" guides="1" tooltips="1" connect="1" arrows="1" fold="1" page="1" pageScale="1" pageWidth="827" pageHeight="1169" math="0" shadow="0">
      <root>
        <mxCell id="0" />
        <mxCell id="1" parent="0" />
        <mxCell id="8hcqD9446oHf6cCnFzT0-20" style="edgeStyle=orthogonalEdgeStyle;rounded=0;orthogonalLoop=1;jettySize=auto;html=1;exitX=1;exitY=0.5;exitDx=0;exitDy=0;entryX=0;entryY=0.5;entryDx=0;entryDy=0;" edge="1" parent="1" source="8hcqD9446oHf6cCnFzT0-3" target="8hcqD9446oHf6cCnFzT0-4">
          <mxGeometry relative="1" as="geometry" />
        </mxCell>
        <mxCell id="8hcqD9446oHf6cCnFzT0-3" value="User" style="rounded=1;whiteSpace=wrap;html=1;" vertex="1" parent="1">
          <mxGeometry x="40" y="140" width="100" height="40" as="geometry" />
        </mxCell>
        <mxCell id="8hcqD9446oHf6cCnFzT0-32" style="edgeStyle=orthogonalEdgeStyle;rounded=0;orthogonalLoop=1;jettySize=auto;html=1;entryX=0;entryY=0.5;entryDx=0;entryDy=0;" edge="1" parent="1" source="8hcqD9446oHf6cCnFzT0-4" target="8hcqD9446oHf6cCnFzT0-5">
          <mxGeometry relative="1" as="geometry" />
        </mxCell>
        <mxCell id="8hcqD9446oHf6cCnFzT0-33" style="edgeStyle=orthogonalEdgeStyle;rounded=0;orthogonalLoop=1;jettySize=auto;html=1;entryX=0;entryY=0.5;entryDx=0;entryDy=0;" edge="1" parent="1" source="8hcqD9446oHf6cCnFzT0-4" target="8hcqD9446oHf6cCnFzT0-6">
          <mxGeometry relative="1" as="geometry" />
        </mxCell>
        <mxCell id="8hcqD9446oHf6cCnFzT0-4" value="Mengunjungi Perpus" style="rounded=1;whiteSpace=wrap;html=1;" vertex="1" parent="1">
          <mxGeometry x="190" y="135" width="120" height="50" as="geometry" />
        </mxCell>
        <mxCell id="8hcqD9446oHf6cCnFzT0-34" style="edgeStyle=orthogonalEdgeStyle;rounded=0;orthogonalLoop=1;jettySize=auto;html=1;entryX=0;entryY=0.5;entryDx=0;entryDy=0;" edge="1" parent="1" source="8hcqD9446oHf6cCnFzT0-5" target="8hcqD9446oHf6cCnFzT0-7">
          <mxGeometry relative="1" as="geometry" />
        </mxCell>
        <mxCell id="8hcqD9446oHf6cCnFzT0-5" value="Isi form pengunjung" style="rounded=1;whiteSpace=wrap;html=1;" vertex="1" parent="1">
          <mxGeometry x="353" y="70" width="119" height="40" as="geometry" />
        </mxCell>
        <mxCell id="8hcqD9446oHf6cCnFzT0-37" style="edgeStyle=orthogonalEdgeStyle;rounded=0;orthogonalLoop=1;jettySize=auto;html=1;entryX=0;entryY=0.5;entryDx=0;entryDy=0;" edge="1" parent="1" source="8hcqD9446oHf6cCnFzT0-6" target="8hcqD9446oHf6cCnFzT0-8">
          <mxGeometry relative="1" as="geometry" />
        </mxCell>
        <mxCell id="8hcqD9446oHf6cCnFzT0-41" style="edgeStyle=orthogonalEdgeStyle;rounded=0;orthogonalLoop=1;jettySize=auto;html=1;entryX=0;entryY=0.5;entryDx=0;entryDy=0;" edge="1" parent="1" source="8hcqD9446oHf6cCnFzT0-6" target="8hcqD9446oHf6cCnFzT0-11">
          <mxGeometry relative="1" as="geometry">
            <Array as="points">
              <mxPoint x="413" y="290" />
            </Array>
          </mxGeometry>
        </mxCell>
        <mxCell id="8hcqD9446oHf6cCnFzT0-6" value="Pencarian Buku" style="rounded=1;whiteSpace=wrap;html=1;" vertex="1" parent="1">
          <mxGeometry x="353" y="200" width="120" height="40" as="geometry" />
        </mxCell>
        <mxCell id="8hcqD9446oHf6cCnFzT0-35" style="edgeStyle=orthogonalEdgeStyle;rounded=0;orthogonalLoop=1;jettySize=auto;html=1;entryX=0;entryY=0.5;entryDx=0;entryDy=0;" edge="1" parent="1" source="8hcqD9446oHf6cCnFzT0-7" target="8hcqD9446oHf6cCnFzT0-9">
          <mxGeometry relative="1" as="geometry" />
        </mxCell>
        <mxCell id="8hcqD9446oHf6cCnFzT0-7" value="Kirim" style="rounded=1;whiteSpace=wrap;html=1;" vertex="1" parent="1">
          <mxGeometry x="510" y="70" width="100" height="40" as="geometry" />
        </mxCell>
        <mxCell id="8hcqD9446oHf6cCnFzT0-38" style="edgeStyle=orthogonalEdgeStyle;rounded=0;orthogonalLoop=1;jettySize=auto;html=1;" edge="1" parent="1" source="8hcqD9446oHf6cCnFzT0-8" target="8hcqD9446oHf6cCnFzT0-10">
          <mxGeometry relative="1" as="geometry" />
        </mxCell>
        <mxCell id="8hcqD9446oHf6cCnFzT0-8" value="Masukkan kata kunci judul" style="rounded=1;whiteSpace=wrap;html=1;" vertex="1" parent="1">
          <mxGeometry x="510" y="200" width="100" height="40" as="geometry" />
        </mxCell>
        <mxCell id="8hcqD9446oHf6cCnFzT0-36" style="edgeStyle=orthogonalEdgeStyle;rounded=0;orthogonalLoop=1;jettySize=auto;html=1;" edge="1" parent="1" source="8hcqD9446oHf6cCnFzT0-9" target="8hcqD9446oHf6cCnFzT0-5">
          <mxGeometry relative="1" as="geometry">
            <Array as="points">
              <mxPoint x="700" y="130" />
              <mxPoint x="413" y="130" />
            </Array>
          </mxGeometry>
        </mxCell>
        <mxCell id="8hcqD9446oHf6cCnFzT0-9" value="Daftar Kunjungan" style="rounded=1;whiteSpace=wrap;html=1;" vertex="1" parent="1">
          <mxGeometry x="650" y="70" width="100" height="40" as="geometry" />
        </mxCell>
        <mxCell id="8hcqD9446oHf6cCnFzT0-39" style="edgeStyle=orthogonalEdgeStyle;rounded=0;orthogonalLoop=1;jettySize=auto;html=1;" edge="1" parent="1" source="8hcqD9446oHf6cCnFzT0-10" target="8hcqD9446oHf6cCnFzT0-11">
          <mxGeometry relative="1" as="geometry" />
        </mxCell>
        <mxCell id="8hcqD9446oHf6cCnFzT0-10" value="Hasil pencarian" style="rounded=1;whiteSpace=wrap;html=1;" vertex="1" parent="1">
          <mxGeometry x="652" y="200" width="100" height="40" as="geometry" />
        </mxCell>
        <mxCell id="8hcqD9446oHf6cCnFzT0-11" value="Lihat rincian buku" style="rounded=1;whiteSpace=wrap;html=1;" vertex="1" parent="1">
          <mxGeometry x="652" y="270" width="100" height="40" as="geometry" />
        </mxCell>
      </root>
    </mxGraphModel>
  </diagram>
</mxfile>
